<?xml version="1.0" encoding="UTF-8" standalone="no"?>
<svg
   width="123.25"
   height="28"
   role="img"
   aria-label="INSTAGRAM"
   version="1.1"
   id="svg91302"
   sodipodi:docname="donate-gitbutton.svg"
   inkscape:version="1.1 (c68e22c387, 2021-05-23)"
   xmlns:inkscape="http://www.inkscape.org/namespaces/inkscape"
   xmlns:sodipodi="http://sodipodi.sourceforge.net/DTD/sodipodi-0.dtd"
   xmlns="http://www.w3.org/2000/svg"
   xmlns:svg="http://www.w3.org/2000/svg"
   xmlns:rdf="http://www.w3.org/1999/02/22-rdf-syntax-ns#"
   xmlns:cc="http://creativecommons.org/ns#"
   xmlns:dc="http://purl.org/dc/elements/1.1/">
  <defs
     id="defs91306">
    <clipPath
       clipPathUnits="userSpaceOnUse"
       id="clipPath1084">
      <path
         d="M 0,415.968 H 1280 V 0 H 0 Z"
         id="path1082" />
    </clipPath>
  </defs>
  <sodipodi:namedview
     id="namedview91304"
     pagecolor="#ffffff"
     bordercolor="#999999"
     borderopacity="1"
     inkscape:pageshadow="0"
     inkscape:pageopacity="0"
     inkscape:pagecheckerboard="0"
     showgrid="false"
     inkscape:zoom="1.1693712"
     inkscape:cx="153.5013"
     inkscape:cy="68.840416"
     inkscape:window-width="1366"
     inkscape:window-height="697"
     inkscape:window-x="-8"
     inkscape:window-y="-8"
     inkscape:window-maximized="1"
     inkscape:current-layer="svg91302" />
  <title
     id="title91290">PagBank Donate</title>
  <metadata
     id="metadata92755">
    <rdf:RDF>
      <cc:Work
         rdf:about="">
        <dc:title>PagBank Donate</dc:title>
      </cc:Work>
    </rdf:RDF>
  </metadata>
  <g
     id="g47203">
    <g
       shape-rendering="crispEdges"
       id="g91294"
       style="fill:#f9f9f9;fill-opacity:1">
      <rect
         width="123.25"
         height="28"
         fill="#e4405f"
         id="rect91292"
         style="fill:#f9f9f9;fill-opacity:1" />
    </g>
    <g
       id="g47163">
      <g
         id="g47129">
        <g
           id="g1086"
           transform="matrix(0.04667821,0,0,-0.04667821,96.803109,16.291677)">
          <path
             d="m 0,0 h 47.227 c 21.661,0 45.454,4.303 56.272,21.182 8.233,12.856 9.352,35.277 -8.353,44.043 -2.292,1.132 -4.023,1.945 -6.448,2.651 l -2.451,0.772 c 5.049,0.427 13.375,4.29 17.771,7.461 0.946,0.679 1.412,1.119 2.265,1.838 2.704,2.278 1.985,1.652 4.223,4.29 3.357,3.943 5.742,9.392 6.821,14.601 1.625,7.873 0.959,16.919 -4.463,23.367 -7.887,9.352 -20.689,12.402 -34.544,12.402 H 28.749 c -0.959,0 -0.813,-0.493 -0.986,-1.358 L 24.712,116.688 C 21.475,100.262 17.279,83.129 14.001,66.677 L 1.639,8.633 C 1.319,7.034 1.066,6.115 0.746,4.529 0.413,2.811 0,1.838 0,0 m 53.395,76.868 h -9.099 c 0,1.412 1.399,7.514 1.785,9.365 l 5.835,28.483 c 10.045,0 22.061,1.132 29.934,-2.931 5.995,-3.104 6.741,-7.234 6.741,-12.922 0,-8.313 -5.328,-14.748 -10.844,-17.599 -7.074,-3.65 -13.761,-4.396 -24.352,-4.396 M 31.68,17.891 40.486,59.256 c 10.617,0 27.23,1.452 34.544,-5.928 2.544,-2.584 4.169,-5.422 4.169,-9.618 C 79.199,33.132 74.43,24.979 64.998,21.249 55.06,17.305 45.175,17.891 31.68,17.891"
             style="fill:#000000;fill-opacity:1;fill-rule:evenodd;stroke:none"
             id="path1088" />
        </g>
        <g
           id="g1090"
           transform="matrix(0.04667821,0,0,-0.04667821,92.955111,16.291677)">
          <path
             d="M 0,0 C 8.02,0 14.774,1.559 21.408,4.982 28.669,8.726 34.624,17.026 35.49,17.598 35.37,16.053 34.451,13.149 34.091,11.683 33.571,9.605 33.119,7.434 32.626,5.515 31.507,1.226 30.388,-2.225 28.749,-5.875 22.967,-18.771 13.029,-24.659 -0.346,-26.071 c -3.557,-0.373 -7.181,-0.04 -10.818,-0.04 -3.89,-0.013 -9.805,1.252 -13.069,2.171 -1.971,0.56 -3.89,1.253 -5.662,1.972 -0.919,0.386 -1.598,0.759 -2.637,1.186 -0.946,0.373 -1.666,1.039 -2.678,1.132 -0.027,-1.186 -0.866,-3.797 -1.212,-4.956 l -4.064,-14.707 7.461,-2.212 c 19.916,-4.982 46.094,-5.302 64.505,3.877 9.285,4.623 16.226,12.483 20.836,21.715 7.233,14.508 9.392,27.896 12.989,43.629 L 75.629,73.99 c 0.533,2.292 5.049,21.449 5.049,23.407 -5.329,2.558 -25.991,4.41 -31.986,4.41 -8.286,0 -16.653,-1.359 -23.14,-3.264 C 14.095,95.173 4.396,90.457 -4.902,82.93 c -2.545,-2.052 -6.422,-5.409 -8.433,-7.994 l -3.104,-3.637 C -22.035,63.972 -26.151,56.365 -28.589,46.774 -34.957,21.715 -27.39,0 0,0 m 11.723,16.719 c -9.885,0 -13.202,5.915 -13.202,15.56 0,14.575 5.649,25.925 12.15,34.198 6.781,8.619 18.877,16.546 30.108,16.546 h 3.81 c 2.398,0 3.597,-0.839 5.568,-0.879 C 50.131,80.505 43.15,52.888 42.564,51.01 41.578,47.799 40.299,44.296 39.007,41.378 35.65,33.758 31.826,27.523 25.885,22.221 22.568,19.277 16.639,16.719 11.723,16.719"
             style="fill:#000000;fill-opacity:1;fill-rule:evenodd;stroke:none"
             id="path1092" />
        </g>
        <g
           id="g1094"
           transform="matrix(0.04667821,0,0,-0.04667821,80.575364,16.291677)">
          <path
             d="m 0,0 h 29.042 l 9.019,42.617 c 0.373,1.879 1.212,4.543 1.252,6.381 24.033,0 46.041,-2.291 64.292,12.283 10.232,8.167 16.68,21.249 16.68,35.237 0,8.579 -1.026,14.121 -5.995,21.009 -2.132,2.944 -3.158,3.823 -5.662,6.061 -2.052,1.825 -4.623,3.371 -7.074,4.663 -11.604,6.088 -28.03,4.356 -42.298,4.356 H 28.163 C 27.976,130.383 11.87,56.352 10.538,49.891 9.405,44.376 8.073,38.86 6.967,33.225 L 1.705,8.566 C 1.412,7.327 1.146,5.848 0.826,4.463 0.586,3.437 0.027,1.212 0,0 m 43.416,68.648 c 2.492,10.671 4.65,22.155 7.154,33.039 0.467,1.972 2.238,9.778 2.238,11.257 11.817,0 28.403,1.918 35.49,-9.099 C 92.695,96.984 90.057,85.94 87.073,81.318 78.267,67.676 60.762,68.648 43.416,68.648"
             style="fill:#000000;fill-opacity:1;fill-rule:evenodd;stroke:none"
             id="path1096" />
        </g>
        <g
           id="g1098"
           transform="matrix(0.04667821,0,0,-0.04667821,118.27489,11.635899)">
          <path
             d="m 0,0 v 0 l -21.768,-19.876 c -2.705,-2.372 -6.968,-6.781 -9.326,-8.58 l -18.477,-16.719 c 3.623,-6.847 9.671,-16.826 13.801,-24.046 l 5.942,-10.192 c 3.73,-6.674 8.14,-13.695 11.643,-20.329 h -31.679 c -0.44,1.892 -2.412,4.849 -3.331,6.648 l -8.499,16.426 c -0.587,1.159 -0.999,1.985 -1.572,3.13 l -5.076,9.885 c -1.199,2.305 -7.833,15.334 -8.513,15.84 0,-1.425 -2.278,-11.537 -2.624,-13.228 -2.505,-12.097 -5.249,-27.151 -7.94,-38.701 -8.393,0 -16.852,0.107 -25.245,-0.013 -3.464,-0.04 -2.531,0.04 -1.919,3.117 3.784,18.824 8.327,38.168 12.03,56.912 l 17.479,83.156 h 27.576 c 0,-1.625 -5.848,-28.669 -6.474,-31.667 -0.706,-3.397 -1.492,-6.847 -2.199,-10.417 -0.919,-4.61 -8.592,-40.02 -8.632,-41.832 l 40.712,38.807 C -31.773,0.493 -33.052,0.013 -28.749,0 -19.157,-0.013 -9.578,0 0,0"
             style="fill:#000000;fill-opacity:1;fill-rule:evenodd;stroke:none"
             id="path1100" />
        </g>
        <g
           id="g1102"
           transform="matrix(0.04667821,0,0,-0.04667821,87.490932,16.387442)">
          <path
             d="m 0,0 c 10.538,0 17.039,2.052 25.232,7.913 2.891,2.065 5.355,4.929 7.7,7.554 1.279,1.439 2.118,2.771 3.277,4.356 0.666,0.906 0.906,1.359 1.519,2.305 0.533,0.813 0.946,1.758 1.585,2.225 0,-1.839 -0.626,-4.024 -0.919,-5.822 L 36.063,4.09 C 35.903,2.771 35.437,2.185 36.929,2.038 l 27.03,0.014 c 0.426,1.838 0.253,4.662 0.506,6.541 l 0.613,6.714 c 1.878,16.732 8.526,43.03 12.15,60.016 l 5.209,23.833 c 0,0.639 -2.079,0.972 -2.678,1.145 -3.597,1.04 -6.088,1.399 -9.725,1.999 l -10.191,1.252 c -12.337,0.613 -19.65,0.799 -31.747,-2.278 C 16.852,98.41 6.075,92.881 -2.891,85.621 -7.34,82.01 -10.951,78.293 -14.574,73.844 c -4.65,-5.715 -8.54,-13.122 -10.911,-20.196 -0.653,-1.932 -1.319,-4.237 -1.732,-6.195 -0.986,-4.676 -1.372,-8.859 -1.812,-14.028 -0.266,-3.184 0.813,-10.724 1.772,-13.735 1.412,-4.396 2.798,-6.781 5.422,-10.138 C -17.079,3.437 -8.046,0 0,0 m 13.788,18.478 c -10.391,0 -13.495,7.233 -13.495,17.025 0,13.935 6.288,26.018 12.563,33.785 2.691,3.317 3.503,3.597 5.702,5.742 1.878,1.825 4.423,3.57 6.767,4.969 5.702,3.397 11.377,5.368 19.557,5.368 2.345,0 5.195,-0.426 6.754,-1.172 C 51.609,82.89 50.81,80.012 50.517,78.853 47.56,67.196 45.615,54.287 40.486,43.71 L 32.039,29.562 c -3.53,-4.01 -7.14,-7.954 -12.629,-9.952 -1.199,-0.426 -3.97,-1.132 -5.622,-1.132 m 25.525,6.461 0.08,-0.093 c 0,0.013 -0.106,0.066 -0.08,0.093"
             style="fill:#000000;fill-opacity:1;fill-rule:evenodd;stroke:none"
             id="path1104" />
        </g>
        <g
           id="g1106"
           transform="matrix(0.04667821,0,0,-0.04667821,102.44513,14.895004)">
          <path
             d="m 0,0 c 0,-18.438 10.538,-31.973 29.042,-31.973 10.951,0 17.865,2.478 25.192,7.953 3.051,2.305 5.222,4.663 7.727,7.527 1.199,1.372 2.238,2.785 3.277,4.357 l 3.117,4.809 c 0,-2.305 -3.53,-18.558 -3.53,-22.594 h 28.163 c 0,1.638 0.226,1.891 0.293,3.224 0.413,7.82 1.066,14.827 2.624,22.62 1.626,8.207 3.277,15.854 5.129,23.913 l 9.832,44.443 c 0.24,1.132 0.586,2.011 0.613,3.197 -3.384,1.625 -16.173,3.57 -19.664,3.81 -5.422,0.36 -5.315,0.506 -11.15,0.586 -1.359,0.014 -1.705,0.267 -2.638,0.267 l -8.22,-0.546 c -15.786,-1.359 -35.916,-9.739 -47,-20.769 -0.692,-0.68 -0.892,-0.733 -1.598,-1.333 l -8.18,-9.418 C 8.246,33.412 5.888,28.656 3.184,20.583 1.359,15.16 0,7.287 0,0 m 43.123,-13.495 c -8.566,0 -13.788,5.302 -13.788,14.374 0,12.403 2.158,20.263 8.153,30.281 0.759,1.266 1.359,2.118 2.238,3.344 l 5.222,6.208 c 2.958,2.944 6.075,5.409 9.739,7.58 5.475,3.238 11.404,5.103 19.237,5.103 2.345,0 5.182,-0.427 6.741,-1.173 -0.107,-1.398 -0.826,-3.89 -1.173,-5.275 C 79.066,45.188 78.68,43.51 78.267,41.725 75.616,30.521 74.31,22.501 69.514,11.737 65.305,2.291 58.337,-8.326 48.412,-12.323 c -0.906,-0.36 -4.103,-1.172 -5.289,-1.172"
             style="fill:#000000;fill-opacity:1;fill-rule:evenodd;stroke:none"
             id="path1108" />
        </g>
        <g
           id="g1110"
           transform="matrix(0.04667821,0,0,-0.04667821,109.7164,12.429998)">
          <path
             d="m 0,0 c 0,2.638 2.638,15.16 2.638,17.012 l -24.966,0.04 C -23.46,16.932 -23.34,16.959 -23.487,15.867 -24.912,5.808 -25.458,2.771 -27.55,-7.354 l -6.315,-30.068 c -1.132,-5.102 -2.158,-9.898 -3.17,-15.013 -0.973,-4.876 -2.185,-10.019 -3.184,-15.014 -0.493,-2.478 -0.973,-4.89 -1.559,-7.527 l -1.638,-7.754 h 27.869 l 2.465,11.91 c 0.413,2.065 0.759,3.757 1.225,5.809 l 3.824,17.891 c 2.158,9.405 4.636,25.978 9.006,34.118 1.971,3.663 2.344,3.703 4.356,6.221 l 3.823,3.504 c 9.152,6.194 24.206,5.422 25.166,-7.287 0.466,-6.275 -5.143,-28.749 -6.675,-36.449 L 20.236,-82.73 h 27.577 l 12.989,61.535 c 1.385,6.487 3.09,14.334 1.558,21.954 C 60.269,11.217 52.542,16.772 42.79,18.451 32.399,20.236 20.409,18.038 12.376,12.563 7.607,9.312 4.25,5.395 0.799,0.959 0.506,0.586 0.266,0.306 0,0"
             style="fill:#000000;fill-opacity:1;fill-rule:evenodd;stroke:none"
             id="path1112" />
        </g>
      </g>
      <g
         id="g47113">
        <g
           id="g1114"
           transform="matrix(0.04667821,0,0,-0.04667821,77.308444,11.065911)">
          <path
             d="m 0,0 c -35.081,84.856 -132.061,125.187 -216.638,90.078 -84.559,-35.104 -124.689,-132.365 -89.622,-217.226 35.07,-84.842 132.061,-125.174 216.621,-90.063 C -5.058,-182.102 35.069,-84.856 0,0"
             style="fill:#000000;fill-opacity:1;fill-rule:nonzero;stroke:none"
             id="path1116" />
        </g>
        <g
           id="g1118"
           transform="matrix(0.04667821,0,0,-0.04667821,72.940144,7.3109523)">
          <path
             d="m 0,0 c -79.289,32.921 -170.212,-4.886 -203.092,-84.443 -32.863,-79.543 4.753,-170.724 84.026,-203.627 79.289,-32.922 170.212,4.882 203.091,84.441 C 116.904,-124.084 79.277,-32.906 0,0"
             style="fill:#000000;fill-opacity:1;fill-rule:nonzero;stroke:none"
             id="path1120" />
        </g>
        <g
           id="g1122"
           transform="matrix(0.04667821,0,0,-0.04667821,76.593143,12.980908)"
           style="fill:#e1e953;fill-opacity:1">
          <path
             d="m 0,0 c 0,76.39 -61.682,138.312 -137.793,138.312 -76.094,0 -137.774,-61.922 -137.774,-138.312 0,-76.39 61.68,-138.325 137.774,-138.325 C -61.682,-138.325 0,-76.39 0,0"
             style="fill:#e1e953;fill-opacity:1;fill-rule:nonzero;stroke:none"
             id="path1124" />
        </g>
        <g
           id="g1126"
           transform="matrix(0.04667821,0,0,-0.04667821,70.160041,6.6994678)">
          <path
             d="m 0,0 c -53.659,0 -102.025,-32.468 -122.541,-82.226 -20.514,-49.781 -9.129,-107.062 28.839,-145.12 37.964,-38.062 95.028,-49.402 144.594,-28.736 49.547,20.656 81.807,69.264 81.727,123.134 C 132.581,-59.445 73.235,0.158 0,0.239 Z m 0,-276.534 c -78.994,0 -143.021,64.28 -143.021,143.586 0,79.289 64.027,143.576 143.021,143.576 78.994,0 143.032,-64.285 143.032,-143.576 0,-79.302 -64.038,-143.586 -143.032,-143.586"
             style="fill:#000000;fill-opacity:1;fill-rule:nonzero;stroke:none"
             id="path1128" />
        </g>
        <g
           id="g1130"
           transform="matrix(0.04667821,0,0,-0.04667821,74.422429,15.937884)"
           style="fill:#8fd7de;fill-opacity:1">
          <path
             d="m 0,0 c 0,63.413 -51.215,114.816 -114.383,114.816 -63.159,0 -114.374,-51.403 -114.374,-114.816 0,-63.396 51.215,-114.808 114.374,-114.808 C -51.215,-114.808 0,-63.396 0,0"
             style="fill:#8fd7de;fill-opacity:1;fill-rule:nonzero;stroke:none"
             id="path1132" />
        </g>
        <g
           id="g1134"
           transform="matrix(0.04667821,0,0,-0.04667821,69.081989,10.82051)">
          <path
             d="m 0,0 c -57.337,-0.011 -104.897,-44.514 -108.923,-101.927 -4.024,-57.41 36.867,-108.17 93.624,-116.245 56.765,-8.066 110.088,29.295 122.1,85.579 6.901,32.359 -1.136,66.102 -21.876,91.875 -20.683,25.736 -51.912,40.707 -84.93,40.722 z m 0.268,-229.673 c -8.504,-0.009 -16.983,0.884 -25.298,2.657 -64.554,13.9 -105.662,77.701 -91.825,142.508 13.837,64.811 77.384,106.094 141.947,92.201 64.57,-13.875 105.691,-77.663 91.882,-142.47 -11.803,-55.199 -60.314,-94.7 -116.545,-94.896 z"
             style="fill:#000000;fill-opacity:1;fill-rule:nonzero;stroke:none"
             id="path1136" />
        </g>
        <g
           id="g1138"
           transform="matrix(0.04667821,0,0,-0.04667821,77.059094,16.163255)"
           style="fill:#fed11a;fill-opacity:1">
          <path
             d="m 0,0 c 0,39.335 -31.767,71.222 -70.955,71.222 -39.19,0 -70.956,-31.887 -70.956,-71.222 0,-39.353 31.766,-71.238 70.956,-71.238 C -31.767,-71.238 0,-39.353 0,0"
             style="fill:#fed11a;fill-opacity:1;fill-rule:nonzero;stroke:none"
             id="path1140" />
        </g>
        <g
           id="g1142"
           transform="matrix(0.04667821,0,0,-0.04667821,73.747051,13.081905)">
          <path
             d="m 0,0 c -26.613,0.013 -50.626,-16.079 -60.811,-40.756 -10.188,-24.68 -4.567,-53.06 14.256,-71.988 18.784,-18.884 47.123,-24.543 71.721,-14.319 24.583,10.237 40.608,34.328 40.595,61.05 C 65.723,-29.576 36.302,-0.036 0,0 m 0,-142.454 c -42.061,0 -76.144,34.221 -76.144,76.441 0,42.221 34.083,76.442 76.144,76.442 42.06,0 76.151,-34.221 76.151,-76.442 C 76.109,-108.224 42.033,-142.419 0,-142.454"
             style="fill:#000000;fill-opacity:1;fill-rule:nonzero;stroke:none"
             id="path1144" />
        </g>
      </g>
    </g>
    <rect
       style="opacity:1;fill:#00bd40;fill-opacity:1;stroke-width:4.87214;stroke-linecap:round;stroke-linejoin:round;stop-color:#000000"
       id="rect1362"
       width="56.734127"
       height="28"
       x="0"
       y="0" />
    <text
       xml:space="preserve"
       style="font-style:normal;font-weight:normal;font-size:16.2882px;line-height:1.25;font-family:sans-serif;fill:#ffffff;fill-opacity:1;stroke:none;stroke-width:0.407206"
       x="8.195446"
       y="18.736956"
       id="text11594"
       transform="scale(0.92535452,1.0806669)"><tspan
         sodipodi:role="line"
         id="tspan11592"
         x="8.195446"
         y="18.736956"
         style="font-style:normal;font-variant:normal;font-weight:bold;font-stretch:normal;font-family:sans-serif;-inkscape-font-specification:'sans-serif Bold';fill:#ffffff;stroke-width:0.407206">Doar</tspan></text>
  </g>
</svg>
